<?xml version="1.0" standalone="no"?>
<!DOCTYPE svg PUBLIC "-//W3C//DTD SVG 20010904//EN"
 "http://www.w3.org/TR/2001/REC-SVG-20010904/DTD/svg10.dtd">
<svg version="1.0" xmlns="http://www.w3.org/2000/svg"
 width="640.000000pt" height="1280.000000pt" viewBox="0 0 640.000000 1280.000000"
 preserveAspectRatio="xMidYMid meet">
<g transform="translate(0.000000,1280.000000) scale(0.100000,-0.100000)"
fill="#000000" stroke="none">
<path d="M1560 12695 c0 -8 4 -15 10 -15 5 0 7 7 4 15 -4 8 -8 15 -10 15 -2 0
-4 -7 -4 -15z"/>
<path d="M1433 12613 c-15 -5 -17 -23 -4 -23 5 0 11 7 15 15 3 8 4 15 3 14 -1
0 -8 -3 -14 -6z"/>
<path d="M1517 12474 c-29 -39 -98 -73 -208 -100 -57 -14 -115 -26 -128 -26
-17 0 -28 -11 -42 -42 -31 -68 -26 -87 43 -166 34 -39 83 -86 110 -105 45 -33
63 -65 36 -65 -7 0 -5 -5 5 -11 9 -5 26 -28 37 -50 23 -44 34 -48 50 -19 6 11
17 20 25 20 8 0 19 -9 25 -20 6 -11 15 -20 19 -20 5 0 11 9 14 20 9 36 42 23
75 -30 34 -55 46 -60 62 -30 6 11 16 20 23 20 36 0 121 -130 99 -152 -6 -6
-35 -2 -78 12 -100 32 -334 46 -525 32 -133 -9 -157 -13 -207 -39 -31 -15 -58
-35 -60 -43 -5 -30 56 -106 107 -134 48 -26 51 -29 62 -88 8 -41 23 -75 46
-105 21 -28 33 -53 30 -64 -5 -20 2 -24 71 -34 28 -5 42 -3 42 4 0 16 56 13
70 -4 35 -42 -17 -69 -120 -61 -50 4 -69 10 -83 27 -24 29 -28 21 -21 -34 7
-52 6 -52 89 -32 66 16 79 14 182 -22 90 -32 102 -44 73 -73 -19 -19 -28 -21
-58 -13 -21 4 -73 7 -118 5 -72 -2 -84 0 -118 23 -45 31 -54 28 -26 -8 11 -14
20 -32 20 -40 0 -11 22 -15 108 -19 119 -5 152 -16 152 -53 0 -13 -3 -26 -7
-28 -5 -2 -69 -1 -143 2 -74 4 -136 6 -138 5 -1 -1 13 -40 32 -88 40 -98 99
-191 104 -164 2 9 -2 26 -7 37 -18 33 -13 52 28 92 45 45 56 48 72 17 7 -13
29 -44 50 -69 44 -53 48 -72 18 -92 -19 -14 -19 -15 15 -21 40 -8 96 -50 96
-73 0 -11 -7 -14 -23 -9 -13 3 -49 8 -81 12 -44 5 -57 4 -52 -4 4 -7 15 -12
24 -12 27 -1 102 -38 102 -51 0 -8 -16 -10 -57 -6 -32 4 -97 1 -145 -5 l-87
-11 25 -29 c15 -19 24 -42 24 -66 1 -20 7 -55 15 -77 8 -22 15 -50 15 -62 0
-12 5 -45 11 -73 9 -42 13 -49 25 -39 27 22 44 -7 44 -75 0 -80 26 -318 46
-431 21 -113 76 -273 154 -450 40 -90 58 -141 51 -148 -14 -14 -75 0 -105 24
-36 29 -99 157 -149 303 -39 114 -41 129 -46 266 -3 106 -7 134 -12 105 -24
-127 -5 -254 77 -506 43 -132 57 -190 65 -275 9 -102 19 -148 19 -91 0 74 34
75 105 3 57 -59 131 -173 161 -248 11 -27 22 -48 27 -48 10 0 63 84 122 194
l49 89 -16 90 c-11 68 -12 90 -3 93 7 3 10 16 7 31 l-5 26 84 -7 c128 -11 353
-37 361 -42 5 -3 8 -27 8 -54 0 -48 0 -48 -37 -54 -21 -3 -72 -8 -113 -11 -41
-3 -96 -8 -121 -11 -42 -5 -50 -2 -83 26 -37 33 -45 33 -24 1 27 -44 -104
-335 -251 -553 -96 -142 -157 -212 -165 -187 -2 8 -10 66 -16 129 -9 102 -76
489 -86 499 -2 2 -8 -7 -13 -21 -5 -13 -34 -62 -65 -107 -59 -86 -118 -197
-142 -265 -24 -66 -9 -50 19 21 44 110 175 301 198 287 18 -11 8 -48 -24 -93
-52 -73 -54 -78 -7 -37 41 37 44 38 57 20 24 -33 5 -66 -95 -167 -53 -53 -93
-97 -89 -97 5 0 27 13 50 29 59 40 103 61 111 54 4 -4 -20 -34 -53 -67 -64
-66 -161 -185 -161 -198 0 -4 28 13 63 38 34 25 74 53 90 60 38 20 44 1 18
-67 -22 -57 -27 -86 -10 -56 14 24 25 22 73 -18 24 -19 46 -35 50 -35 4 0 -5
20 -20 45 -35 60 -43 153 -20 210 16 38 18 39 32 21 8 -11 14 -40 15 -65 2
-100 13 -145 38 -157 17 -9 32 -9 52 -2 64 22 230 259 347 496 41 83 78 152
82 152 4 0 15 -9 25 -20 18 -20 18 -22 -13 -86 -18 -35 -32 -76 -32 -89 0 -14
-14 -54 -31 -88 -28 -58 -29 -60 -5 -32 l25 30 9 -25 c9 -24 10 -23 46 28 21
29 43 52 48 52 7 0 9 -19 6 -51 -8 -81 -68 -142 -82 -84 -6 25 -8 23 -38 -32
-93 -174 -281 -413 -306 -389 -2 3 22 47 54 98 31 51 74 120 94 153 25 40 40
77 43 110 6 50 6 50 -11 25 -98 -143 -231 -297 -330 -383 -53 -47 -57 -49
-100 -42 -72 11 -90 21 -94 52 -2 23 -7 14 -25 -42 -28 -86 -29 -101 -4 -55
16 31 23 35 62 38 24 1 51 -2 59 -7 12 -8 11 -13 -5 -32 -11 -12 -35 -28 -52
-36 -39 -16 -42 -35 -8 -57 14 -9 25 -21 25 -26 0 -14 -39 -22 -76 -15 -30 5
-34 10 -35 38 -1 27 -4 22 -21 -31 -12 -36 -25 -61 -32 -59 -14 5 -44 85 -62
167 l-14 65 5 -55 c5 -57 39 -201 55 -230 6 -12 27 -19 67 -23 62 -6 143 -34
143 -50 0 -5 -17 -36 -37 -69 -32 -51 -38 -70 -38 -117 l0 -56 54 -21 c39 -16
67 -37 106 -83 l54 -61 -27 -58 c-15 -33 -28 -82 -30 -115 l-5 -59 47 -42 c25
-24 46 -50 46 -58 0 -8 -22 -45 -49 -81 -78 -106 -77 -116 18 -242 60 -79 171
-284 171 -314 0 -9 -27 -69 -59 -133 -119 -237 -221 -612 -238 -875 -5 -84 -3
-110 11 -147 29 -75 125 -146 199 -146 29 0 30 -24 4 -86 -66 -157 -106 -336
-113 -509 -6 -122 -3 -147 40 -410 25 -154 68 -439 95 -634 l50 -354 -20 -56
c-47 -128 -61 -190 -66 -291 -4 -91 -2 -112 15 -159 20 -51 20 -57 6 -118 -42
-183 -70 -565 -60 -826 7 -183 17 -272 43 -384 l16 -71 -25 -30 c-25 -30 -25
-32 -22 -189 2 -115 7 -168 18 -194 14 -34 13 -46 -18 -202 -19 -91 -42 -180
-52 -197 -14 -23 -38 -40 -88 -61 -78 -32 -122 -68 -142 -116 -18 -42 -18 -43
6 -43 13 0 20 7 20 19 0 43 72 98 174 131 30 10 42 21 57 55 20 45 46 153 74
304 l17 93 -22 40 c-18 31 -21 48 -16 81 9 51 20 59 62 41 75 -31 203 -6 238
48 8 12 28 79 45 148 114 475 454 1816 463 1829 22 30 203 211 210 211 5 0 8
-7 8 -15 0 -9 -77 -307 -171 -663 -268 -1009 -329 -1245 -324 -1250 5 -6 7 0
259 953 433 1636 410 1551 444 1598 17 23 64 90 104 149 54 80 79 107 95 108
28 0 70 -51 79 -98 11 -56 -16 -674 -66 -1507 -11 -181 -23 -383 -26 -448 -5
-87 -11 -124 -23 -137 -35 -41 -257 -176 -477 -290 -127 -66 -239 -129 -250
-141 -15 -16 -20 -42 -25 -116 l-6 -95 -64 -65 c-82 -83 -265 -245 -349 -308
-75 -57 -160 -134 -160 -145 0 -25 124 -39 152 -17 8 6 30 50 47 97 31 83 71
140 98 140 7 0 13 -5 13 -11 0 -16 -158 -437 -181 -481 -24 -46 -43 -48 -92
-7 -40 33 -46 26 -22 -21 16 -31 46 -44 86 -38 19 2 33 26 82 138 57 133 87
183 87 149 0 -9 -23 -87 -50 -173 -27 -86 -50 -163 -50 -170 0 -8 12 -13 31
-13 27 0 37 9 76 68 31 47 43 73 39 87 -12 36 70 517 95 564 14 26 49 42 62
29 16 -16 25 -14 32 10 4 11 27 43 52 71 54 61 59 73 68 171 9 97 19 111 71
103 29 -5 47 -17 68 -43 27 -34 28 -39 23 -109 -20 -233 -112 -491 -242 -680
-46 -67 -51 -80 -37 -85 14 -5 8 -15 -33 -51 -27 -25 -66 -60 -85 -77 l-35
-32 42 20 c53 26 150 107 193 161 31 39 32 42 10 35 -18 -6 -22 -4 -18 7 7 18
101 165 127 199 11 14 22 37 25 50 3 13 21 89 40 169 19 80 38 164 41 187 8
52 19 61 39 31 13 -20 13 -38 0 -148 -45 -393 -130 -655 -249 -773 -31 -30
-27 -34 13 -13 41 21 117 106 145 162 38 75 73 180 92 274 9 47 28 130 41 185
15 62 20 103 14 109 -5 5 -7 64 -4 140 8 202 10 212 56 262 22 24 46 44 52 44
7 0 17 15 24 32 17 46 80 111 99 104 14 -6 15 -36 10 -259 -6 -271 -15 -328
-82 -532 -34 -102 -111 -265 -124 -265 -14 0 -15 -8 19 160 16 80 30 152 29
160 0 8 -20 -52 -44 -135 -24 -82 -61 -195 -82 -250 -36 -94 -42 -102 -88
-133 -28 -17 -51 -37 -53 -42 -13 -39 121 43 185 113 24 26 60 72 80 104 33
50 38 55 41 35 8 -56 -136 -294 -193 -320 -17 -8 -89 -12 -208 -12 l-182 0
-59 39 c-33 22 -63 38 -68 35 -17 -11 -7 -23 27 -34 20 -7 35 -18 35 -27 0
-13 -13 -15 -85 -11 -70 4 -89 8 -108 26 l-23 22 -24 -25 c-29 -31 -77 -33
-114 -4 l-27 21 -24 -26 -24 -26 1374 0 c756 0 1375 2 1375 5 0 2 -9 33 -20
67 -21 69 -36 254 -67 812 l-17 319 61 56 c33 31 66 66 72 78 12 23 8 101 -24
468 -19 215 -19 217 5 245 14 17 20 37 20 75 0 46 4 55 34 83 30 27 34 36 30
69 -11 93 -21 259 -17 270 3 7 25 24 49 38 35 21 44 31 44 53 -1 15 -18 166
-39 336 -37 295 -38 312 -23 353 16 41 14 53 -37 390 -29 192 -58 384 -64 427
l-11 79 56 52 c51 47 61 53 111 57 74 6 117 39 156 121 52 105 107 362 142
662 12 110 22 125 74 125 18 0 60 14 94 31 70 35 117 90 171 199 18 36 69 128
113 204 95 163 98 179 44 260 -20 31 -37 59 -37 62 0 4 28 52 62 106 l61 100
-18 30 -17 30 43 44 c23 24 41 45 38 48 -2 2 -56 30 -119 61 -63 32 -220 113
-348 182 -128 68 -237 121 -242 118 -6 -3 -10 -18 -10 -33 0 -39 -12 -52 -44
-49 -26 2 -35 -9 -116 -133 -48 -74 -95 -136 -103 -138 -9 -2 -42 22 -74 54
-32 31 -82 73 -111 92 -42 28 -61 50 -84 96 -17 33 -41 77 -54 98 -15 23 -30
72 -39 122 -28 161 -93 331 -170 452 -28 42 -40 54 -43 42 -2 -10 -6 -18 -9
-18 -3 0 -37 15 -77 34 -84 40 -177 66 -235 66 l-41 0 76 -72 c210 -200 377
-491 442 -773 12 -49 22 -115 24 -145 3 -55 3 -55 -27 -55 -28 0 -31 5 -109
180 -92 207 -309 642 -301 605 45 -217 46 -428 2 -602 -13 -54 -21 -98 -18
-98 12 0 39 55 56 115 29 104 36 125 45 125 14 0 29 -59 36 -140 l7 -77 -47
-32 c-25 -18 -46 -38 -46 -45 0 -7 22 -18 49 -25 27 -7 56 -20 64 -29 17 -19
54 -168 44 -178 -3 -4 -41 30 -84 75 -92 96 -126 108 -52 19 55 -66 129 -175
129 -190 0 -22 -30 -2 -77 50 -28 32 -74 77 -101 100 l-49 41 -39 -29 c-55
-41 -69 -40 -59 8 4 20 7 53 6 72 -4 68 -1 426 5 529 l6 103 29 -6 c26 -5 28
-3 19 12 -5 9 -23 32 -39 51 l-29 33 -6 -53 c-3 -30 -12 -392 -20 -804 -8
-413 -18 -757 -21 -765 -3 -8 -34 -37 -68 -64 -95 -74 -177 -155 -177 -176 0
-9 11 -46 24 -81 l23 -64 -23 -310 c-13 -170 -26 -330 -29 -353 -4 -24 -37
-105 -75 -180 -150 -298 -327 -531 -834 -1098 -93 -104 -216 -246 -274 -316
-96 -116 -127 -146 -140 -134 -6 7 5 35 118 291 326 740 587 1480 909 2575 38
129 94 301 125 382 91 239 177 561 221 823 10 62 22 104 32 112 12 10 14 26 9
95 -4 46 -10 96 -13 113 l-5 29 -20 -38 c-12 -23 -17 -48 -14 -62 15 -58 -173
-834 -363 -1499 -271 -952 -597 -1866 -925 -2598 -117 -261 -127 -278 -188
-315 -30 -17 -64 -32 -77 -32 -21 0 -23 3 -18 33 4 17 34 86 68 152 59 115 58
136 -2 48 -31 -45 -64 -57 -76 -27 -10 27 31 95 116 191 44 51 81 95 81 99 0
3 -29 -10 -65 -30 l-65 -36 -10 23 c-19 45 -52 341 -47 412 7 81 72 346 147
589 153 504 455 1283 811 2094 54 124 97 227 96 229 -6 6 -262 -524 -390 -807
-219 -485 -395 -917 -538 -1320 -38 -107 -75 -211 -82 -230 -19 -52 -32 -39
-35 37 -4 75 3 128 53 404 75 407 266 925 602 1629 67 139 73 147 134 195 35
27 117 94 181 147 64 54 124 98 133 98 10 0 30 30 56 88 22 48 66 121 98 162
85 109 176 253 280 438 51 90 99 176 108 190 38 61 -12 -3 -122 -158 -244
-342 -342 -459 -527 -631 -175 -163 -218 -199 -239 -199 -11 0 -19 -5 -19 -10
0 -6 -57 -70 -128 -143 -70 -73 -145 -154 -167 -181 -54 -67 -129 -123 -133
-101 -7 31 165 313 371 610 131 190 335 467 351 477 18 12 18 -8 1 -41 -25
-50 -36 -83 -25 -76 27 17 347 464 390 545 7 14 -88 -73 -211 -193 -123 -121
-226 -226 -228 -235 -2 -10 -63 -100 -136 -202 -267 -374 -459 -678 -595 -945
-86 -167 -178 -325 -191 -325 -17 0 -18 20 -3 76 8 32 13 69 9 81 -5 23 36
264 61 352 8 29 13 56 10 59 -9 8 -65 -124 -111 -263 -71 -211 -89 -312 -89
-508 -1 -185 1 -181 -66 -147 -37 19 -40 19 -40 3 0 -23 33 -96 60 -133 24
-34 25 -40 4 -40 -27 0 -73 39 -99 84 -30 52 -33 125 -9 285 50 345 189 736
325 914 153 202 842 860 1148 1097 53 41 113 87 131 102 l35 27 -27 1 c-16 0
-28 -6 -29 -12 -1 -16 -171 -142 -197 -146 -17 -3 -33 14 -117 123 -15 18 -15
17 -1 -10 7 -16 32 -51 55 -77 23 -25 41 -50 41 -54 0 -15 -54 -64 -71 -64 -9
0 -24 10 -33 23 -15 20 -15 19 0 -13 l17 -34 -43 -38 c-24 -21 -48 -37 -54
-35 -6 1 -26 31 -43 66 -39 75 -43 58 -9 -32 l24 -64 -71 -70 c-143 -137 -197
-184 -207 -178 -5 3 -10 21 -10 38 0 44 -17 16 -26 -43 -6 -40 -18 -56 -108
-148 -56 -58 -107 -101 -116 -100 -37 7 -29 282 14 449 13 52 47 153 75 226
86 223 139 439 177 724 17 132 27 165 46 153 36 -22 29 -167 -22 -499 -15 -99
-26 -182 -24 -184 13 -15 68 208 90 365 12 86 21 124 30 124 24 0 34 -38 35
-137 2 -151 13 -178 28 -68 19 138 17 135 50 135 25 0 30 5 35 33 3 19 13 42
20 53 14 18 15 18 36 -1 11 -10 52 -72 90 -136 77 -129 160 -227 218 -255 30
-15 69 -20 204 -24 139 -4 170 -8 184 -22 16 -16 16 -18 -7 -27 -13 -5 -36
-12 -51 -15 -18 -4 -25 -11 -22 -20 3 -9 -14 -24 -48 -43 -29 -17 -62 -41 -73
-54 l-20 -23 35 23 c75 48 135 71 186 69 27 -1 54 -5 59 -8 6 -4 24 -12 40
-18 17 -5 39 -13 50 -17 11 -4 -4 15 -32 43 -53 51 -64 76 -40 85 17 6 74 -18
114 -48 17 -14 47 -28 65 -31 73 -13 158 -47 221 -88 42 -28 63 -37 57 -26
-16 29 -96 91 -163 125 -47 24 -63 38 -69 60 -4 16 -23 43 -42 60 -30 25 -47
60 -106 213 -77 200 -76 189 -21 261 l25 33 -44 167 c-58 221 -59 228 -27 240
37 14 40 26 18 77 -33 74 -23 213 17 238 5 3 88 11 183 17 96 6 230 16 299 23
113 11 121 13 79 20 -30 5 -54 4 -67 -3 -15 -8 -55 -8 -139 -2 -65 6 -171 13
-235 17 -68 4 -121 11 -126 18 -5 6 -14 35 -21 65 -9 44 -9 57 1 67 10 9 319
147 507 227 l26 11 -24 4 c-13 2 -35 -5 -50 -16 -15 -11 -130 -46 -269 -82
-235 -62 -242 -63 -262 -45 -11 10 -20 22 -20 26 0 5 -20 27 -45 50 -25 23
-45 47 -45 53 0 6 72 103 159 216 88 113 158 206 156 208 -8 8 -57 -33 -70
-57 -13 -27 -323 -301 -350 -311 -10 -4 0 -16 32 -40 93 -70 85 -96 -13 -47
-38 19 -99 44 -136 56 -36 12 -72 29 -78 36 -17 21 -5 45 22 46 18 0 15 3 -12
12 l-35 12 -52 215 c-29 118 -56 226 -60 240 -5 15 -10 -80 -13 -225 -5 -229
-4 -252 13 -268 18 -18 24 -57 9 -57 -5 0 -5 -26 0 -57 5 -31 8 -78 6 -103 -3
-41 -5 -45 -28 -45 -24 0 -26 4 -39 103 -12 80 -18 102 -30 102 -29 0 -120
-28 -167 -50 -36 -18 -48 -20 -57 -10 -9 9 -4 19 25 42 l36 30 -240 160 c-132
87 -242 158 -243 156 -2 -2 75 -86 171 -186 96 -101 174 -189 174 -196 0 -8 7
-19 15 -26 9 -7 15 -20 13 -29 -1 -9 12 -35 29 -59 32 -44 51 -98 38 -110 -9
-9 -32 22 -68 88 l-28 51 -29 -21 c-27 -20 -39 -20 -307 -18 l-278 3 -1 150
c-2 166 -19 272 -79 475 -107 367 -117 432 -124 835 l-6 340 -74 144 c-92 178
-101 227 -52 283 26 30 31 44 31 86 l0 51 48 6 c73 11 126 38 150 77 26 42 27
73 6 149 -16 57 -16 59 6 94 17 28 19 39 10 50 -6 8 -9 23 -5 35 8 24 2 25
-30 4 -34 -22 -57 -11 -53 23 2 21 -1 27 -12 24 -52 -13 -100 -13 -104 0 -16
52 -14 51 -43 36 -40 -20 -53 -11 -53 35 0 35 7 48 46 90 70 75 106 160 112
269 3 63 1 89 -7 89 -6 0 -11 -7 -11 -15 0 -25 -45 -107 -83 -151 -48 -55
-132 -110 -189 -126 -41 -10 -52 -10 -83 5 -30 14 -36 22 -33 44 3 24 14 32
87 63 89 37 161 93 187 142 20 38 14 53 -9 22z m-137 -995 c75 -20 120 -42
120 -58 0 -4 -53 -6 -117 -3 -65 2 -144 -1 -176 -7 -87 -16 -109 1 -82 66 l15
36 83 -6 c45 -4 116 -16 157 -28z m-120 -125 c53 -48 54 -74 1 -74 -42 0 -56
11 -66 53 -8 30 -1 57 15 57 5 0 28 -16 50 -36z m160 -101 c21 -56 35 -75 72
-94 47 -24 64 -48 89 -129 25 -77 30 -243 10 -303 -19 -56 -31 -35 -31 54 0
92 -23 216 -50 269 -10 20 -30 42 -45 50 -15 8 -35 26 -45 41 -21 29 -44 115
-35 130 11 17 25 9 35 -18z m-20 -888 c38 -35 26 -45 -55 -45 l-75 0 0 29 c0
16 6 32 13 35 23 10 98 -2 117 -19z m6 -100 c16 -13 17 -16 4 -25 -8 -6 -35
-9 -60 -8 -38 3 -45 6 -48 26 -3 20 1 22 40 22 24 0 53 -7 64 -15z m1594
-1060 c0 -52 4 -95 9 -95 5 0 16 -3 25 -6 13 -5 16 3 16 52 0 33 3 76 6 97 6
33 10 37 36 37 l30 0 -7 -92 c-4 -51 -8 -96 -9 -101 0 -4 24 -18 54 -30 69
-28 139 -76 175 -119 34 -40 79 -134 70 -147 -3 -6 -56 17 -118 49 -61 32
-159 77 -216 99 -59 23 -110 49 -118 61 -13 19 -17 19 -32 7 -9 -7 -42 -28
-73 -45 -31 -17 -118 -72 -193 -122 -75 -49 -140 -90 -145 -90 -21 0 -40 34
-40 71 0 55 22 102 63 133 41 31 171 100 207 109 22 6 23 8 9 19 -9 7 -22 43
-29 83 -19 109 -19 110 12 113 37 4 50 -28 52 -129 l1 -76 42 0 c23 0 53 -7
67 -16 l26 -17 -6 30 c-6 28 -5 30 25 30 l31 0 0 88 c0 49 3 92 7 95 18 19 23
-1 23 -88z m-356 16 c30 -33 58 -119 45 -142 -11 -22 -28 -21 -40 2 -71 145
-75 159 -40 159 10 0 26 -8 35 -19z m589 11 c3 -4 -2 -37 -10 -75 -11 -47 -20
-67 -30 -67 -13 0 -15 9 -10 48 9 78 33 123 50 94z m72 -125 c-20 -61 -31 -75
-45 -61 -13 13 14 107 38 130 16 16 17 16 20 1 2 -10 -4 -41 -13 -70z m-791
-28 c25 -29 34 -59 19 -59 -10 0 -83 72 -83 82 0 20 41 5 64 -23z m886 23 c0
-15 -60 -102 -70 -102 -22 0 -6 54 28 93 15 17 42 23 42 9z m-927 -87 c30 -28
35 -45 13 -45 -17 0 -76 48 -76 61 0 18 36 9 63 -16z m957 -2 c0 -25 -44 -78
-58 -69 -14 8 -5 34 21 64 25 27 37 28 37 5z m-973 -65 c13 -12 23 -25 23 -30
0 -24 -73 9 -84 38 -9 22 34 17 61 -8z m1013 -26 c0 -14 -23 -32 -42 -32 -20
0 -25 26 -5 33 20 8 47 8 47 -1z m-430 -73 c50 -40 89 -77 87 -83 -2 -6 -27
-11 -58 -11 -30 0 -60 -4 -66 -8 -14 -9 -18 -122 -7 -164 5 -18 9 -20 24 -10
15 9 29 6 70 -13 70 -33 90 -60 90 -124 0 -75 -78 -246 -112 -246 -13 0 -9 83
6 103 13 16 11 23 -10 54 -25 38 -33 110 -14 129 7 7 0 20 -20 39 l-30 29 0
-40 c0 -50 -14 -64 -60 -63 -54 2 -85 13 -84 32 1 9 -2 17 -7 17 -23 0 6 -74
37 -95 33 -22 30 -31 -17 -55 -23 -12 -38 -24 -35 -28 4 -3 12 0 18 6 15 15
58 16 58 0 0 -6 -7 -19 -16 -29 -14 -16 -13 -18 16 -24 33 -7 50 -35 50 -80 0
-44 -27 -48 -123 -18 -40 12 -49 20 -54 44 -7 34 -14 36 -38 9 -10 -11 -22
-20 -26 -20 -18 0 -55 213 -45 256 4 16 25 33 64 53 76 39 97 64 127 151 14
40 25 75 25 77 0 2 -30 3 -66 3 -81 0 -80 9 4 68 34 24 74 59 88 78 15 19 28
34 30 34 2 0 45 -32 94 -71z m-1012 9 c23 -23 11 -64 -62 -213 -112 -227 -291
-485 -337 -485 -28 0 -24 10 30 82 145 192 258 398 334 611 7 20 18 22 35 5z
m355 -108 c27 -59 28 -61 12 -112 -21 -74 -20 -125 5 -140 11 -7 20 -19 20
-26 0 -22 -120 -192 -135 -192 -21 0 -93 67 -112 104 -13 24 -16 59 -14 158 2
133 -4 157 -50 217 -38 48 -30 51 114 51 l133 0 27 -60z m-23 -515 l34 -35
-12 -117 c-10 -96 -18 -129 -43 -178 -34 -69 -74 -123 -84 -114 -3 4 3 54 14
112 12 62 21 151 22 218 2 166 8 177 69 114z m-88 -86 c-3 -104 -18 -199 -33
-199 -14 0 -12 273 3 288 26 26 33 5 30 -89z m-349 -121 c-63 -104 -160 -226
-226 -281 -55 -47 -96 -72 -104 -64 -2 3 37 54 89 114 51 59 124 149 162 198
38 50 81 103 95 118 46 50 37 2 -16 -85z m133 75 c-4 -21 -9 -68 -13 -105 -6
-66 -5 -68 21 -78 32 -12 26 -30 -11 -30 -61 0 -80 69 -49 174 24 78 64 109
52 39z m573 -60 c21 -105 16 -116 -39 -88 -20 10 -30 23 -30 37 0 34 31 108
45 108 7 0 17 -25 24 -57z m-419 19 c0 -31 -44 -170 -69 -218 -44 -85 -122
-164 -162 -164 -16 0 -11 11 30 60 65 77 91 124 137 238 21 53 42 92 50 92 8
0 14 -4 14 -8z m-450 -149 c0 -26 -117 -134 -195 -181 -71 -42 -135 -63 -135
-45 0 6 48 44 108 85 59 42 129 94 157 117 55 45 65 49 65 24z m1612 -144 c76
-124 75 -129 -7 -129 -75 0 -71 -7 -78 132 -7 131 5 130 85 -3z m-1035 29
c-13 -97 -30 -149 -70 -218 -52 -91 -67 -99 -66 -33 1 108 13 145 68 221 30
39 58 72 64 72 6 0 7 -17 4 -42z m-137 7 c0 -28 -118 -245 -204 -373 -85 -128
-215 -295 -301 -387 -44 -48 -47 -49 -61 -31 -8 11 -14 25 -14 31 0 6 54 81
120 166 157 201 274 368 351 502 51 89 66 107 85 107 15 0 24 -6 24 -15z
m-752 -58 c-6 -17 -66 -45 -115 -53 -42 -6 -43 -6 -43 23 0 16 3 32 6 35 3 3
39 6 80 6 53 1 74 -3 72 -11z m809 -276 c-4 -16 -29 -90 -58 -163 -98 -253
-126 -401 -115 -610 l7 -127 -72 -75 c-39 -42 -78 -76 -85 -76 -19 0 -18 45 6
176 25 137 42 199 142 509 97 303 93 294 129 350 33 52 54 60 46 16z m1501
-153 c10 -10 15 -10 21 1 34 55 205 -108 296 -283 55 -105 42 -151 -16 -56
-17 28 -32 50 -33 50 -2 0 21 -48 51 -107 29 -60 57 -129 62 -155 4 -26 23
-70 41 -98 18 -28 43 -76 55 -107 23 -55 24 -56 106 -92 82 -35 179 -111 179
-139 0 -15 -240 -273 -276 -297 -20 -13 -28 -14 -40 -4 -31 26 -10 91 46 144
64 60 103 172 80 230 -14 35 -11 40 -55 -89 -47 -133 -109 -178 -67 -48 27 84
27 82 -2 82 -13 0 -28 6 -33 13 -5 6 -17 62 -27 122 -45 276 -177 552 -360
752 -36 39 -66 76 -66 82 0 15 23 14 38 -1z m-1976 -315 c-44 -76 -86 -139
-94 -141 -8 -1 -21 13 -31 34 -22 45 -22 44 103 174 52 54 94 90 97 83 2 -7
-31 -74 -75 -150z m189 -129 c-39 -118 -74 -296 -87 -446 -7 -82 -31 -138 -60
-138 -15 0 -16 11 -11 108 9 158 73 407 138 533 19 39 48 73 56 66 2 -3 -14
-58 -36 -123z m1856 -31 c50 -112 192 -487 249 -658 95 -285 134 -463 153
-698 13 -156 14 -197 2 -197 -5 0 -23 21 -39 48 -25 39 -47 116 -127 447 -99
413 -205 833 -256 1014 -33 119 -32 111 -20 111 4 0 22 -30 38 -67z m1284
-299 c145 -75 270 -142 277 -149 11 -10 8 -18 -13 -44 l-27 -31 23 -19 23 -18
-58 -91 c-32 -51 -62 -94 -67 -98 -5 -3 -9 -25 -9 -50 0 -53 -15 -63 -60 -39
l-31 16 3 -54 c3 -52 6 -57 56 -102 34 -31 52 -55 52 -70 0 -48 -49 -37 -138
31 -24 18 -60 38 -80 45 -20 6 -49 23 -64 36 l-26 25 -7 -22 c-9 -27 5 -38 60
-47 31 -5 55 -21 108 -71 37 -36 67 -73 67 -83 0 -9 -8 -27 -19 -40 -17 -21
-21 -22 -49 -10 -17 7 -56 40 -86 72 -30 33 -63 59 -74 59 -10 0 -31 9 -46 21
-14 11 -26 17 -26 12 0 -4 -3 -17 -6 -29 -4 -17 1 -22 35 -32 33 -10 51 -27
101 -94 71 -94 78 -131 24 -136 -27 -3 -38 4 -73 45 l-41 48 0 -31 c0 -21 -64
-144 -214 -410 -118 -208 -222 -383 -230 -389 -15 -10 -103 8 -119 24 -4 4
-17 66 -28 137 -11 71 -35 229 -55 351 l-35 222 22 51 c18 43 20 56 11 92 -11
41 -9 46 29 105 52 80 78 149 85 226 l5 62 -27 -50 c-34 -64 -59 -95 -92 -117
-36 -24 -47 -23 -60 7 -12 27 -8 33 192 275 48 58 137 178 199 267 67 97 119
163 128 163 9 0 22 -7 29 -15 20 -24 30 -18 30 19 0 43 9 66 24 66 7 0 131
-61 277 -136z m-1490 -452 c76 -49 128 -125 144 -214 6 -30 4 -38 -8 -38 -13
0 -13 -6 -4 -35 19 -64 -41 -199 -141 -315 -76 -88 -76 -89 -68 223 4 149 11
276 16 281 13 13 73 -29 131 -92 l52 -56 -27 52 c-14 28 -55 83 -91 121 -58
61 -80 101 -57 101 4 0 28 -13 53 -28z m-1231 -41 c0 -5 -52 -89 -117 -187
-207 -318 -313 -486 -400 -636 -47 -82 -89 -148 -93 -148 -19 0 -18 36 4 122
47 184 151 398 285 587 57 82 82 106 184 183 114 85 137 98 137 79z m-70 -185
c0 -3 -25 -60 -56 -128 -165 -363 -310 -736 -389 -998 -44 -146 -186 -552
-227 -649 -24 -57 -37 -45 -48 45 -37 287 33 588 220 941 90 170 428 729 468
776 14 16 32 23 32 13z m1525 -158 c3 -13 68 -432 145 -933 77 -500 173 -1128
215 -1394 41 -266 75 -490 75 -496 0 -7 -77 -54 -172 -105 -95 -51 -231 -127
-302 -170 -72 -42 -135 -79 -141 -81 -5 -2 -50 -31 -100 -63 -321 -211 -409
-266 -418 -257 -10 10 -6 114 29 696 14 233 22 352 74 1040 11 143 24 325 30
405 31 428 51 688 56 715 11 56 66 127 158 201 50 40 106 88 124 106 59 58
130 167 157 241 43 115 44 117 55 117 5 0 12 -10 15 -22z m277 -409 c37 -90
67 -176 68 -190 0 -19 -13 -37 -51 -69 -31 -26 -54 -39 -60 -33 -9 9 -49 353
-49 426 0 69 23 36 92 -134z m193 -559 c20 -146 67 -483 105 -749 39 -267 70
-488 70 -493 0 -22 -32 -1 -94 61 l-68 69 -14 113 c-34 273 -56 432 -76 541
l-21 117 36 40 c62 69 62 165 1 328 -35 94 -36 99 -24 152 17 78 29 106 40 95
5 -5 25 -128 45 -274z m109 -1349 l48 -48 35 -288 c19 -158 32 -293 29 -301
-6 -17 -101 -20 -111 -4 -7 12 -75 606 -75 658 0 45 17 41 74 -17z m-2488
-866 c4 -9 -21 -45 -68 -97 -41 -46 -89 -102 -107 -125 -38 -51 -51 -54 -51
-14 0 31 12 49 124 174 68 77 91 91 102 62z m1571 -203 c12 -8 37 -290 27
-316 -6 -16 -42 -32 -51 -22 -9 8 -27 312 -20 331 7 16 25 19 44 7z m-1197
-99 c0 -5 -95 -298 -210 -653 -187 -575 -213 -648 -240 -672 -55 -50 -63 -32
-31 68 11 32 97 300 191 594 95 294 177 544 183 555 35 70 108 142 107 108z
m-483 -40 c-3 -10 -28 -72 -55 -138 -58 -142 -81 -224 -89 -322 -5 -64 -4 -73
11 -73 21 0 71 25 112 56 65 50 59 30 -26 -97 -65 -96 -70 -107 -70 -157 0
-72 19 -238 31 -270 10 -26 10 -26 82 46 111 110 112 98 10 -86 -111 -198
-146 -248 -165 -236 -17 11 -7 51 22 86 l31 37 -19 63 c-35 113 -46 238 -45
519 1 262 17 515 33 533 11 11 110 53 129 55 8 1 11 -5 8 -16z m1374 -50 c22
-16 41 -37 44 -48 3 -11 6 -76 7 -144 l3 -125 -63 -44 c-44 -31 -67 -41 -74
-34 -7 7 -7 70 1 204 7 106 14 199 16 206 6 18 23 15 66 -15z m162 -122 c23
-16 50 -38 60 -49 17 -19 17 -20 -20 -49 -60 -47 -84 -58 -94 -42 -13 21 -11
169 2 169 6 0 29 -13 52 -29z m477 -153 c0 -35 -7 -157 -15 -273 -45 -650 -92
-1025 -157 -1275 -38 -146 -43 -176 -28 -185 7 -4 25 2 41 14 l30 22 31 -26
c43 -36 82 -55 96 -46 9 5 2 17 -23 39 -39 36 -43 47 -19 56 41 16 73 6 111
-35 21 -23 51 -50 67 -62 26 -19 25 -15 -12 32 -23 29 -45 64 -48 78 -4 14 -4
71 -1 127 4 55 20 331 37 611 17 281 35 534 41 563 12 58 57 121 77 108 19
-12 15 -322 -13 -901 l-26 -526 20 -33 c11 -18 30 -41 42 -52 l22 -19 -22 42
c-19 39 -21 58 -21 240 0 271 17 874 31 1068 11 174 21 241 37 257 15 15 58 2
93 -30 l31 -28 -31 -344 c-64 -712 -88 -1049 -78 -1090 4 -14 27 -49 53 -78
27 -31 44 -58 40 -67 -6 -18 -49 -20 -78 -4 -14 8 -23 8 -31 0 -14 -14 -62
-14 -88 0 -13 7 -24 7 -32 1 -7 -6 -84 -12 -171 -13 -155 -3 -159 -3 -174 19
-10 15 -24 22 -45 22 -29 0 -29 -1 -13 -19 15 -17 15 -19 1 -25 -50 -19 -79 1
-80 56 -1 24 -3 68 -5 98 l-3 55 -6 -49 c-5 -45 -9 -50 -36 -58 -16 -4 -52 -4
-78 1 -46 8 -48 7 -45 -13 2 -14 21 -30 62 -50 43 -20 55 -30 45 -37 -8 -5
-189 -9 -402 -9 -418 0 -424 1 -339 48 41 23 43 23 85 7 53 -20 146 -17 158 5
16 31 23 56 25 93 4 72 44 106 127 108 l42 1 -34 12 c-39 14 -51 33 -26 42 15
6 139 -15 194 -33 14 -4 14 -3 1 6 -8 6 -52 23 -96 36 -55 17 -83 31 -86 43
-7 26 2 42 23 42 23 0 178 -62 228 -91 59 -34 44 -13 -27 40 -89 66 -98 76
-82 96 7 8 18 15 26 15 7 0 54 -36 104 -80 50 -44 95 -80 99 -80 5 0 0 39 -12
87 -29 124 -31 414 -3 521 10 39 22 72 27 72 11 0 10 22 14 -230 2 -127 10
-254 19 -311 22 -142 64 -232 67 -146 1 17 1 205 -1 417 -2 387 8 604 36 780
39 248 109 399 187 400 14 0 17 -9 17 -62z m69 48 c9 -11 9 -66 1 -228 -6
-117 -13 -220 -16 -228 -14 -39 -23 30 -29 234 -6 181 -5 220 6 227 19 12 25
11 38 -5z m395 -1141 c9 -148 24 -360 33 -470 22 -276 23 -259 -8 -263 -34 -4
-72 28 -101 86 -21 42 -23 59 -21 167 3 160 21 436 39 614 25 247 37 220 58
-134z"/>
<path d="M3150 154 l-55 -23 67 -1 c69 0 83 6 72 34 -8 20 -16 19 -84 -10z"/>
<path d="M1174 12009 c-4 -22 -13 -43 -21 -46 -12 -5 -58 6 -100 23 -8 3 -17
-6 -23 -21 -9 -23 -15 -26 -38 -23 -15 3 -34 8 -43 12 -12 5 -18 1 -22 -14 -4
-17 -11 -20 -26 -15 -13 4 -21 2 -21 -5 0 -20 78 -111 85 -100 3 5 3 14 0 20
-10 17 13 47 45 58 27 10 32 8 55 -21 l25 -32 0 37 c0 31 4 37 31 47 48 16 54
14 73 -26 l19 -38 18 42 c12 28 25 43 41 46 20 3 19 5 -10 12 -24 6 -38 18
-53 46 -11 22 -22 39 -24 39 -3 0 -8 -18 -11 -41z"/>
<path d="M1240 10615 c-8 -9 -8 -15 -2 -15 12 0 26 19 19 26 -2 2 -10 -2 -17
-11z"/>
<path d="M3137 9363 c18 -9 36 -13 40 -10 9 10 3 13 -37 20 l-35 6 32 -16z"/>
<path d="M1201 8284 c0 -11 3 -14 6 -6 3 7 2 16 -1 19 -3 4 -6 -2 -5 -13z"/>
<path d="M1191 8234 c0 -11 3 -14 6 -6 3 7 2 16 -1 19 -3 4 -6 -2 -5 -13z"/>
<path d="M1182 8180 c0 -14 2 -19 5 -12 2 6 2 18 0 25 -3 6 -5 1 -5 -13z"/>
<path d="M1172 8030 c0 -19 2 -27 5 -17 2 9 2 25 0 35 -3 9 -5 1 -5 -18z"/>
<path d="M2660 7793 c0 -4 5 -15 10 -23 8 -13 10 -13 10 2 0 9 -4 20 -10 23
-5 3 -10 3 -10 -2z"/>
<path d="M3486 7393 c-5 -15 1 -29 19 -47 26 -26 26 -26 20 -4 -4 13 -13 34
-20 47 -12 24 -13 24 -19 4z"/>
<path d="M3436 7271 c-5 -7 -6 -13 -5 -14 2 -2 12 -9 22 -16 20 -16 23 -2 4
24 -10 13 -16 15 -21 6z"/>
<path d="M2326 796 c-55 -132 -104 -236 -111 -236 -7 0 -19 -23 -26 -52 -13
-56 -33 -117 -68 -208 -21 -54 -21 -55 -1 -31 37 43 108 184 164 323 60 149
148 416 143 431 -1 5 -47 -97 -101 -227z"/>
<path d="M1750 435 c0 -26 32 -74 53 -81 20 -6 67 30 67 51 0 6 -19 16 -42 22
-24 6 -51 14 -60 18 -13 5 -18 2 -18 -10z"/>
<path d="M2407 425 c-4 -8 -2 -17 2 -20 5 -2 11 4 14 15 6 23 -8 27 -16 5z"/>
<path d="M2372 317 c-12 -23 -40 -66 -63 -96 -22 -29 -37 -56 -34 -60 11 -10
65 60 97 127 34 71 34 93 0 29z"/>
<path d="M2045 140 c-3 -5 -1 -10 4 -10 6 0 11 5 11 10 0 6 -2 10 -4 10 -3 0
-8 -4 -11 -10z"/>
</g>
</svg>
